<svg id="Layer_1" data-name="Layer 1" xmlns="http://www.w3.org/2000/svg" viewBox="0 0 512 512"><defs><style>.cls-1{fill:#fff;}</style></defs><path class="cls-1" d="M480.28,162,276.11,13.64a34.22,34.22,0,0,0-40.22,0L31.72,162a34.2,34.2,0,0,0-12.43,38.24l78,240a34.2,34.2,0,0,0,32.53,23.64H382.19a34.2,34.2,0,0,0,32.53-23.64l78-240A34.2,34.2,0,0,0,480.28,162ZM196.92,199.33,238.08,128a20.7,20.7,0,0,1,35.84,0l41.16,71.31a20.68,20.68,0,0,1-17.91,31H214.83A20.68,20.68,0,0,1,196.92,199.33Zm29.5,156.76H144.09a20.69,20.69,0,0,1-17.92-31l41.17-71.3a20.69,20.69,0,0,1,35.83,0l41.17,71.3A20.69,20.69,0,0,1,226.42,356.09Zm142.07-.36H286.16a20.69,20.69,0,0,1-17.92-31l41.17-71.31a20.69,20.69,0,0,1,35.83,0l41.17,71.31A20.69,20.69,0,0,1,368.49,355.73Z"/></svg>