<svg id="Layer_1" data-name="Layer 1" xmlns="http://www.w3.org/2000/svg" xmlns:xlink="http://www.w3.org/1999/xlink" viewBox="0 0 512 512"><defs><style>.cls-1{fill:url(#radial-gradient);}.cls-2{fill:#fff;}</style><radialGradient id="radial-gradient" cx="256" cy="235.5" r="344.99" gradientUnits="userSpaceOnUse"><stop offset="0" stop-color="#14bf96"/><stop offset="0.91" stop-color="#14bf96"/><stop offset="1" stop-color="#14bf96"/></radialGradient></defs><path class="cls-1" d="M235.89,13.64,31.72,162a34.2,34.2,0,0,0-12.43,38.24l78,240a34.2,34.2,0,0,0,32.53,23.64H382.19a34.2,34.2,0,0,0,32.53-23.64l78-240A34.2,34.2,0,0,0,480.28,162L276.11,13.64A34.22,34.22,0,0,0,235.89,13.64Z"/><path class="cls-2" d="M238.08,128l-41.16,71.31a20.68,20.68,0,0,0,17.91,31h82.34a20.68,20.68,0,0,0,17.91-31L273.92,128A20.7,20.7,0,0,0,238.08,128Z"/><path class="cls-2" d="M167.34,253.76l-41.17,71.3a20.69,20.69,0,0,0,17.92,31h82.33a20.69,20.69,0,0,0,17.92-31l-41.17-71.3A20.69,20.69,0,0,0,167.34,253.76Z"/><path class="cls-2" d="M309.41,253.39,268.24,324.7a20.69,20.69,0,0,0,17.92,31h82.33a20.69,20.69,0,0,0,17.92-31l-41.17-71.31A20.69,20.69,0,0,0,309.41,253.39Z"/></svg>